<mxfile host="Electron" agent="Mozilla/5.0 (Windows NT 10.0; Win64; x64) AppleWebKit/537.36 (KHTML, like Gecko) draw.io/24.7.17 Chrome/128.0.6613.36 Electron/32.0.1 Safari/537.36" version="24.7.17">
  <diagram id="U-sU_8HPI4SheYslj8Oh" name="Page-1">
    <mxGraphModel dx="797" dy="1564" grid="1" gridSize="10" guides="1" tooltips="1" connect="1" arrows="1" fold="1" page="1" pageScale="1" pageWidth="850" pageHeight="1100" math="0" shadow="0">
      <root>
        <mxCell id="0" />
        <mxCell id="1" parent="0" />
        <mxCell id="p2sJ_3sWmFqP3zVxrdwb-1" value="Doimiy endpoint" style="rounded=0;whiteSpace=wrap;html=1;" vertex="1" parent="1">
          <mxGeometry x="270" y="-90" width="120" height="60" as="geometry" />
        </mxCell>
        <mxCell id="p2sJ_3sWmFqP3zVxrdwb-2" value="Header" style="rounded=1;whiteSpace=wrap;html=1;" vertex="1" parent="1">
          <mxGeometry x="430" y="-120" width="210" height="50" as="geometry" />
        </mxCell>
        <mxCell id="p2sJ_3sWmFqP3zVxrdwb-3" value="User Info" style="rounded=1;whiteSpace=wrap;html=1;" vertex="1" parent="1">
          <mxGeometry x="430" y="-50" width="210" height="50" as="geometry" />
        </mxCell>
        <mxCell id="p2sJ_3sWmFqP3zVxrdwb-4" value="" style="endArrow=none;html=1;rounded=0;entryX=0;entryY=0.5;entryDx=0;entryDy=0;exitX=1;exitY=0.5;exitDx=0;exitDy=0;" edge="1" parent="1" source="p2sJ_3sWmFqP3zVxrdwb-1" target="p2sJ_3sWmFqP3zVxrdwb-2">
          <mxGeometry width="50" height="50" relative="1" as="geometry">
            <mxPoint x="360" y="-30" as="sourcePoint" />
            <mxPoint x="410" y="-80" as="targetPoint" />
          </mxGeometry>
        </mxCell>
        <mxCell id="p2sJ_3sWmFqP3zVxrdwb-5" value="" style="endArrow=none;html=1;rounded=0;entryX=0;entryY=0.5;entryDx=0;entryDy=0;exitX=1;exitY=0.5;exitDx=0;exitDy=0;" edge="1" parent="1" source="p2sJ_3sWmFqP3zVxrdwb-1" target="p2sJ_3sWmFqP3zVxrdwb-3">
          <mxGeometry width="50" height="50" relative="1" as="geometry">
            <mxPoint x="375" y="20" as="sourcePoint" />
            <mxPoint x="425" y="-30" as="targetPoint" />
          </mxGeometry>
        </mxCell>
        <mxCell id="p2sJ_3sWmFqP3zVxrdwb-6" value="Gidrologiya" style="rounded=0;whiteSpace=wrap;html=1;" vertex="1" parent="1">
          <mxGeometry x="270" y="190" width="120" height="60" as="geometry" />
        </mxCell>
        <mxCell id="p2sJ_3sWmFqP3zVxrdwb-7" value="Qushish" style="rounded=0;whiteSpace=wrap;html=1;" vertex="1" parent="1">
          <mxGeometry x="430" y="140" width="120" height="60" as="geometry" />
        </mxCell>
        <mxCell id="p2sJ_3sWmFqP3zVxrdwb-8" value="Ma&#39;lumot Olish" style="rounded=0;whiteSpace=wrap;html=1;" vertex="1" parent="1">
          <mxGeometry x="430" y="230" width="120" height="60" as="geometry" />
        </mxCell>
        <mxCell id="p2sJ_3sWmFqP3zVxrdwb-9" value="" style="endArrow=none;html=1;rounded=0;entryX=0;entryY=0.5;entryDx=0;entryDy=0;exitX=1;exitY=0.5;exitDx=0;exitDy=0;" edge="1" parent="1" source="p2sJ_3sWmFqP3zVxrdwb-6" target="p2sJ_3sWmFqP3zVxrdwb-7">
          <mxGeometry width="50" height="50" relative="1" as="geometry">
            <mxPoint x="300" y="210" as="sourcePoint" />
            <mxPoint x="350" y="160" as="targetPoint" />
          </mxGeometry>
        </mxCell>
        <mxCell id="p2sJ_3sWmFqP3zVxrdwb-10" value="" style="endArrow=none;html=1;rounded=0;entryX=0;entryY=0.5;entryDx=0;entryDy=0;exitX=1;exitY=0.5;exitDx=0;exitDy=0;" edge="1" parent="1" source="p2sJ_3sWmFqP3zVxrdwb-6" target="p2sJ_3sWmFqP3zVxrdwb-8">
          <mxGeometry width="50" height="50" relative="1" as="geometry">
            <mxPoint x="400" y="230" as="sourcePoint" />
            <mxPoint x="440" y="180" as="targetPoint" />
          </mxGeometry>
        </mxCell>
        <mxCell id="p2sJ_3sWmFqP3zVxrdwb-12" value="Common endpoints" style="rounded=0;whiteSpace=wrap;html=1;" vertex="1" parent="1">
          <mxGeometry x="270" y="-440" width="120" height="60" as="geometry" />
        </mxCell>
        <mxCell id="p2sJ_3sWmFqP3zVxrdwb-13" value="Viloyatlar" style="rounded=1;whiteSpace=wrap;html=1;" vertex="1" parent="1">
          <mxGeometry x="430" y="-490" width="220" height="60" as="geometry" />
        </mxCell>
        <mxCell id="p2sJ_3sWmFqP3zVxrdwb-14" value="Tumanlar" style="rounded=1;whiteSpace=wrap;html=1;" vertex="1" parent="1">
          <mxGeometry x="430" y="-390" width="220" height="60" as="geometry" />
        </mxCell>
        <mxCell id="p2sJ_3sWmFqP3zVxrdwb-18" value="" style="endArrow=none;html=1;rounded=0;exitX=0;exitY=0.5;exitDx=0;exitDy=0;entryX=1;entryY=0.5;entryDx=0;entryDy=0;" edge="1" parent="1" source="p2sJ_3sWmFqP3zVxrdwb-15" target="p2sJ_3sWmFqP3zVxrdwb-8">
          <mxGeometry width="50" height="50" relative="1" as="geometry">
            <mxPoint x="360" y="220" as="sourcePoint" />
            <mxPoint x="410" y="170" as="targetPoint" />
          </mxGeometry>
        </mxCell>
        <mxCell id="p2sJ_3sWmFqP3zVxrdwb-20" value="" style="group" vertex="1" connectable="0" parent="1">
          <mxGeometry x="660" y="430" width="130" height="190" as="geometry" />
        </mxCell>
        <mxCell id="p2sJ_3sWmFqP3zVxrdwb-15" value="Qushishda kerak buladiga ma&#39;lumotlar" style="rounded=0;whiteSpace=wrap;html=1;" vertex="1" parent="p2sJ_3sWmFqP3zVxrdwb-20">
          <mxGeometry width="130" height="60" as="geometry" />
        </mxCell>
        <mxCell id="p2sJ_3sWmFqP3zVxrdwb-19" value="Gd. Stansiyalar&lt;div&gt;&lt;br&gt;&lt;div&gt;Joylashuv o&#39;rni&lt;br&gt;&lt;/div&gt;&lt;div&gt;&lt;br&gt;&lt;/div&gt;&lt;div&gt;Kuzatuv burg&#39;u qudug&#39;ining turi&lt;br&gt;&lt;/div&gt;&lt;/div&gt;" style="shape=process;whiteSpace=wrap;html=1;backgroundOutline=1;" vertex="1" parent="p2sJ_3sWmFqP3zVxrdwb-20">
          <mxGeometry y="60" width="130" height="130" as="geometry" />
        </mxCell>
        <mxCell id="p2sJ_3sWmFqP3zVxrdwb-22" value="" style="curved=1;endArrow=classic;html=1;rounded=0;entryX=1;entryY=0.5;entryDx=0;entryDy=0;exitX=1;exitY=0.5;exitDx=0;exitDy=0;" edge="1" parent="1" source="p2sJ_3sWmFqP3zVxrdwb-14" target="p2sJ_3sWmFqP3zVxrdwb-13">
          <mxGeometry width="50" height="50" relative="1" as="geometry">
            <mxPoint x="360" y="-160" as="sourcePoint" />
            <mxPoint x="410" y="-210" as="targetPoint" />
            <Array as="points">
              <mxPoint x="680" y="-400" />
              <mxPoint x="670" y="-430" />
            </Array>
          </mxGeometry>
        </mxCell>
        <mxCell id="p2sJ_3sWmFqP3zVxrdwb-23" value="" style="endArrow=none;html=1;rounded=0;exitX=1;exitY=0.5;exitDx=0;exitDy=0;entryX=0;entryY=0.5;entryDx=0;entryDy=0;" edge="1" parent="1" source="p2sJ_3sWmFqP3zVxrdwb-12" target="p2sJ_3sWmFqP3zVxrdwb-14">
          <mxGeometry width="50" height="50" relative="1" as="geometry">
            <mxPoint x="530" y="-260" as="sourcePoint" />
            <mxPoint x="580" y="-310" as="targetPoint" />
          </mxGeometry>
        </mxCell>
        <mxCell id="p2sJ_3sWmFqP3zVxrdwb-24" value="" style="endArrow=none;html=1;rounded=0;entryX=0;entryY=0.5;entryDx=0;entryDy=0;" edge="1" parent="1" target="p2sJ_3sWmFqP3zVxrdwb-13">
          <mxGeometry width="50" height="50" relative="1" as="geometry">
            <mxPoint x="390" y="-410" as="sourcePoint" />
            <mxPoint x="580" y="-310" as="targetPoint" />
          </mxGeometry>
        </mxCell>
      </root>
    </mxGraphModel>
  </diagram>
</mxfile>
